<svg width="32" height="33" viewBox="0 0 32 33" fill="none" xmlns="http://www.w3.org/2000/svg">
<path d="M4 6.7848V5.77148C3.73478 5.77148 3.48043 5.87824 3.29289 6.06828C3.10536 6.25831 3 6.51605 3 6.7848H4ZM28 6.7848H29C29 6.51605 28.8946 6.25831 28.7071 6.06828C28.5196 5.87824 28.2652 5.77148 28 5.77148V6.7848ZM4 7.79812H28V5.77148H4V7.79812ZM27 6.7848V22.9979H29V6.7848H27ZM25.3333 24.6867H6.66667V26.7134H25.3333V24.6867ZM5 22.9979V6.7848H3V22.9979H5ZM6.66667 24.6867C5.74667 24.6867 5 23.9301 5 22.9979H3C3 23.9833 3.38631 24.9283 4.07394 25.6251C4.76158 26.3219 5.69421 26.7134 6.66667 26.7134V24.6867ZM27 22.9979C27 23.9301 26.2533 24.6867 25.3333 24.6867V26.7134C26.3058 26.7134 27.2384 26.3219 27.9261 25.6251C28.6137 24.9283 29 23.9833 29 22.9979H27Z" fill="white"/>
<path d="M4 6.78467L16 18.9445L28 6.78467" stroke="white" stroke-width="1.5" stroke-linecap="round" stroke-linejoin="round"/>
</svg>
