<svg width="46" height="53" viewBox="0 0 46 53" fill="none" xmlns="http://www.w3.org/2000/svg">
<path d="M39.6709 30.3076L32.199 26.5635C31.8604 26.4013 31.4911 26.3361 31.1243 26.3738C30.7575 26.4115 30.4049 26.5508 30.0985 26.7793C30.0674 26.8016 30.0378 26.8264 30.0099 26.8536L26.1047 30.5675C26.0642 30.5922 26.0191 30.6061 25.973 30.6079C25.9269 30.6097 25.881 30.5996 25.839 30.5782C23.3289 29.2234 20.7286 26.3336 19.5123 23.5658C19.492 23.5196 19.4815 23.4688 19.4815 23.4173C19.4815 23.3658 19.492 23.315 19.5123 23.2687L22.8449 18.8473C22.8688 18.8146 22.891 18.7804 22.9113 18.7447C23.1128 18.4008 23.2345 18.0061 23.2654 17.5964C23.2964 17.1866 23.2355 16.7747 23.0885 16.3979L19.7638 8.05735C19.575 7.565 19.2484 7.1544 18.8332 6.88718C18.418 6.61995 17.9364 6.51052 17.4608 6.5753C15.3939 6.87913 13.4967 8.01409 12.1236 9.76808C10.7506 11.5221 9.99569 13.7751 10 16.1061C10 29.9539 20.0754 41.2196 32.46 41.2196C34.5446 41.224 36.5593 40.3798 38.1279 38.8446C39.6965 37.3094 40.7116 35.1882 40.9837 32.8773C41.0415 32.348 40.9449 31.812 40.7084 31.349C40.4719 30.886 40.108 30.5207 39.6709 30.3076ZM32.46 39.0973C21.1224 39.0973 11.898 28.7831 11.898 16.1061C11.8928 14.2914 12.4785 12.5366 13.5459 11.1697C14.6133 9.80271 16.0893 8.91703 17.6981 8.67812H17.7345C17.7982 8.67945 17.8601 8.70228 17.912 8.74362C17.964 8.78496 18.0035 8.84289 18.0255 8.9098L21.3628 17.2415C21.3819 17.2878 21.3917 17.3382 21.3917 17.3891C21.3917 17.4401 21.3819 17.4905 21.3628 17.5368L18.0239 21.9688C17.999 22.0005 17.9763 22.0342 17.9559 22.0696C17.747 22.4263 17.6239 22.8372 17.5987 23.2626C17.5735 23.688 17.647 24.1135 17.812 24.4979C19.2149 27.7096 22.1094 30.9213 25.0134 32.49C25.3591 32.6734 25.7415 32.7536 26.1232 32.7226C26.5049 32.6916 26.8729 32.5505 27.1914 32.3131C27.2214 32.2901 27.2515 32.2654 27.2799 32.2388L31.1835 28.5249C31.2221 28.5017 31.2647 28.4881 31.3083 28.4851C31.352 28.482 31.3958 28.4896 31.4366 28.5072L38.9101 32.2512C38.9711 32.2803 39.0224 32.3301 39.0568 32.3935C39.0911 32.457 39.1068 32.531 39.1015 32.6049C38.8889 34.4046 38.0976 36.0562 36.8753 37.251C35.653 38.4459 34.0835 39.1022 32.46 39.0973Z" fill="white"/>
</svg>
